<?xml version="1.0" encoding="utf-8"?>
<!-- Generator: Adobe Illustrator 16.0.0, SVG Export Plug-In . SVG Version: 6.00 Build 0)  -->
<!DOCTYPE svg PUBLIC "-//W3C//DTD SVG 1.1//EN" "http://www.w3.org/Graphics/SVG/1.1/DTD/svg11.dtd">
<svg version="1.1" id="Layer_1" xmlns="http://www.w3.org/2000/svg" xmlns:xlink="http://www.w3.org/1999/xlink" x="0px" y="0px"
	 width="333.336px" height="110.635px" viewBox="0 0 333.336 110.635" enable-background="new 0 0 333.336 110.635"
	 xml:space="preserve">
<g>
	<g>
		<path fill="#D71C23" d="M17.401,74.909v33.394H1V2.781h14.186c9.672,0,17.546,2.184,23.649,6.572
			c6.118,4.39,9.225,13.873,9.308,28.458c0.303,13.695-2.545,23.253-8.58,28.671C33.554,71.902,26.181,74.71,17.401,74.909z
			 M17.401,62.646c3.755,0,6.958-1.665,9.622-4.953c2.663-3.305,3.931-9.63,3.839-19c-0.098-9.651-1.521-15.914-4.286-18.773
			c-2.758-2.849-5.815-4.075-9.175-3.68V62.646z M54.811,55.552c0-6.605,0.083-11.627,0.292-15.079
			c0.884-11.826,3.173-21.312,6.876-28.457c3.68-7.144,9.774-10.67,18.241-10.567c8.383,0,14.417,3.58,18.107,10.714
			c3.692,7.154,6.001,16.579,6.885,28.311c0.178,3.452,0.302,8.474,0.302,15.079c0,6.697-0.125,11.722-0.302,15.061
			c-0.5,6.802-1.57,13.188-3.193,19.137c-1.624,5.979-4.159,10.775-7.594,14.415c-3.452,3.648-8.185,5.471-14.206,5.471
			c-8.664,0-14.811-3.619-18.399-10.859c-3.597-7.237-5.834-16.64-6.718-28.163C54.895,67.273,54.811,62.249,54.811,55.552z
			 M73.126,55.552c0,3.641,0,7.904,0,12.772c0,4.887,0.178,9.392,0.531,13.52c0.332,4.141,1.02,7.594,2.06,10.36
			c1.029,2.755,2.588,4.128,4.669,4.128c2.06-0.094,3.619-1.674,4.647-4.733c1.023-3.046,1.688-6.571,1.979-10.556
			c0.301-3.993,0.437-8.621,0.384-13.905c-0.05-5.262-0.083-9.131-0.083-11.586c0-2.661,0.033-6.594,0.083-11.752
			c0.052-5.181-0.083-9.755-0.384-13.749c-0.291-3.994-0.969-7.553-2.062-10.64c-1.07-3.109-2.61-4.658-4.564-4.658
			c-1.986-0.105-3.504,1.247-4.597,4.065c-1.081,2.808-1.8,6.282-2.132,10.421c-0.353,4.139-0.531,8.633-0.531,13.521
			C73.126,47.627,73.126,51.892,73.126,55.552z M134.604,74.909v33.394h-16.402V2.781h14.206c9.642,0,17.538,2.184,23.652,6.572
			c6.084,4.39,9.194,13.873,9.287,28.458c0.302,13.695-2.549,23.253-8.559,28.671C150.787,71.902,143.369,74.71,134.604,74.909z
			 M134.604,62.646c3.754,0,6.948-1.665,9.608-4.953c2.662-3.305,3.952-9.63,3.838-19c-0.083-9.651-1.518-15.914-4.273-18.773
			c-2.756-2.849-5.813-4.075-9.173-3.68V62.646z M173.189,75.5l14.196-3.254c0.083,0.695,0.147,1.87,0.147,3.545
			c0.185,2.767,0.29,4.868,0.29,6.345c0.189,4.057,0.72,7.198,1.548,9.463c0.833,2.27,2.685,3.465,5.545,3.557
			c1.965,0,3.599-0.861,4.877-2.586c1.282-1.719,1.686-4.361,1.185-7.905c-0.395-4.047-2.016-8.476-4.886-13.312
			c-1.373-2.654-3.349-5.753-5.895-9.299c-7.012-9.963-11.526-17.005-13.532-21.144c-2.019-4.13-2.882-9.111-2.59-14.925
			c0.103-7.29,1.967-13.157,5.606-17.587c3.66-4.431,8.287-6.741,13.894-6.949c7.791-0.396,13.388,2.123,16.787,7.531
			c3.391,5.429,5.439,12.719,6.137,21.883l-13.904,3.39c0-0.385-0.012-0.747-0.054-1.102c-0.072-0.334-0.104-0.707-0.166-1.103
			c-0.053-0.396-0.105-0.75-0.22-1.042c-0.197-1.579-0.486-3.743-0.881-6.488c-0.896-6.511-2.955-9.673-6.212-9.464
			c-3.161,0.187-4.764,2.6-4.864,7.228c-0.314,5.626,2.96,12.813,9.742,21.579c1.197,1.688,2.29,3.205,3.329,4.578
			c1.039,1.393,2.341,3.266,3.922,5.625c3.141,4.536,5.645,9.289,7.466,14.261c1.811,4.98,2.569,10.233,2.278,15.745
			c-0.3,7.688-2.59,13.875-6.876,18.544c-4.271,4.69-9.38,7.021-15.287,7.021c-7.207,0-12.876-3.368-17.068-10.121
			C173.5,92.766,172.004,84.757,173.189,75.5z M221.529,55.552c0-6.605,0.084-11.627,0.281-15.079
			c0.895-11.826,3.193-21.312,6.876-28.457c3.692-7.144,9.786-10.67,18.252-10.567c8.371,0,14.405,3.58,18.115,10.714
			c3.684,7.154,5.982,16.579,6.856,28.311c0.206,3.452,0.301,8.474,0.301,15.079c0,6.697-0.095,11.722-0.301,15.061
			c-0.5,6.802-1.539,13.188-3.173,19.137c-1.621,5.979-4.169,10.775-7.612,14.415c-3.452,3.648-8.178,5.471-14.187,5.471
			c-8.675,0-14.811-3.619-18.399-10.859c-3.599-7.237-5.834-16.64-6.729-28.163C221.613,67.273,221.529,62.249,221.529,55.552z
			 M239.834,55.552c0,3.641,0,7.904,0,12.772c0,4.887,0.179,9.392,0.521,13.52c0.355,4.141,1.03,7.594,2.079,10.36
			c1.031,2.755,2.591,4.128,4.649,4.128c2.079-0.094,3.62-1.674,4.649-4.733c1.051-3.046,1.716-6.571,2.008-10.556
			c0.29-3.993,0.414-8.621,0.363-13.905c-0.051-5.262-0.073-9.131-0.073-11.586c0-2.661,0.022-6.594,0.073-11.752
			c0.051-5.181-0.073-9.755-0.363-13.749c-0.292-3.994-0.989-7.553-2.061-10.64c-1.101-3.109-2.62-4.658-4.597-4.658
			c-1.976-0.105-3.494,1.247-4.586,4.065c-1.072,2.808-1.787,6.282-2.143,10.421c-0.342,4.139-0.521,8.633-0.521,13.521
			C239.834,47.627,239.834,51.892,239.834,55.552z M301.322,74.909v33.394H284.93V2.781h14.177c9.649,0,17.546,2.184,23.651,6.572
			c6.116,4.39,9.212,13.873,9.31,28.458c0.3,13.695-2.571,23.253-8.571,28.671C317.483,71.902,310.091,74.71,301.322,74.909z
			 M301.322,62.646c3.754,0,6.956-1.665,9.611-4.953c2.648-3.305,3.938-9.63,3.846-19c-0.114-9.651-1.528-15.914-4.285-18.773
			c-2.755-2.849-5.812-4.075-9.172-3.68V62.646z"/>
	</g>
</g>
</svg>